<svg xmlns="http://www.w3.org/2000/svg" width="207" height="33" viewBox="0 0 207 33">
    <path fill="#000" fill-rule="evenodd" d="M12.232.582c8.647 0 14.875 6.99 14.875 15.682S20.88 31.946 12.232 31.946H0V.582h12.232zm0 27.421c6.452 0 10.887-5.108 10.887-11.739 0-6.63-4.435-11.739-10.887-11.739H4.167v23.478h8.065zM32.17.583h4.167v31.363H32.17V.582zm41.131 15.816v1.882c0 7.975-5.914 14.248-15.368 14.248-9.678 0-16.533-7.304-16.533-16.265C41.4 7.258 48.3 0 57.844 0c5.869 0 10.977 3.092 13.575 7.572l-3.584 2.106c-1.792-3.36-5.6-5.646-10.036-5.646-7.259 0-12.277 5.377-12.277 12.232 0 6.81 4.973 12.187 12.456 12.187 6.497 0 10.35-3.584 11.156-8.289H57.62V16.4h15.682zM78.364.582h4.167v31.364h-4.167V.582zM99.378 32.53c-5.96 0-10.216-3.002-11.873-7.707l3.584-2.061c1.12 3.45 3.808 5.69 8.379 5.69 4.435 0 6.63-2.016 6.63-4.839 0-3.226-2.777-4.301-7.392-5.735-5.018-1.613-9.857-3.18-9.857-9.006C88.849 3.226 93.464 0 98.706 0c5.152 0 8.871 2.912 10.619 6.855l-3.495 2.016c-1.12-2.688-3.316-4.839-7.124-4.839-3.36 0-5.69 1.793-5.69 4.66 0 2.913 2.195 3.988 6.586 5.377 5.466 1.792 10.619 3.405 10.619 9.454 0 5.51-4.436 9.006-10.843 9.006zM135.222.582v3.943h-9.275v27.421h-4.122V4.526h-9.23V.581h22.627zm27.466 0l-11.112 18.684v12.68h-4.167V19.221L136.342.582h4.66l8.513 14.697L158.028.582h4.66zm7.885 27.421h13.532v3.943h-17.699V.582h4.167v27.421zm21.865 0H207v3.943h-18.729V.582h18.505v3.943h-14.338v9.633h13.218v3.898h-13.218v9.947z"/>
</svg>